<svg width="343" height="59" viewBox="0 0 343 59" fill="none" xmlns="http://www.w3.org/2000/svg">
<mask id="path-1-inside-1_1109_19108" fill="white">
<rect width="59" height="59" rx="2"/>
</mask>
<rect width="59" height="59" rx="2" stroke="white" stroke-width="8" mask="url(#path-1-inside-1_1109_19108)"/>
<rect x="4" y="14" width="51" height="4" fill="white"/>
<circle cx="8" cy="9" r="2" fill="white"/>
<circle cx="14" cy="9" r="2" fill="white"/>
<circle cx="20" cy="9" r="2" fill="white"/>
<path d="M101.176 18.284L93.24 33.676V40.844H86.936V33.676L79 18.284H86.168L90.136 26.988L94.104 18.284H101.176Z" fill="white"/>
<path d="M113.918 41.068C111.806 41.068 109.864 40.5773 108.094 39.596C106.323 38.5933 104.915 37.2173 103.869 35.468C102.845 33.6973 102.333 31.7027 102.333 29.484C102.333 27.2653 102.845 25.2813 103.869 23.532C104.915 21.7613 106.323 20.3853 108.094 19.404C109.864 18.4227 111.806 17.932 113.918 17.932C116.051 17.932 117.992 18.4227 119.742 19.404C121.512 20.3853 122.91 21.7613 123.934 23.532C124.958 25.2813 125.47 27.2653 125.47 29.484C125.47 31.7027 124.958 33.6973 123.934 35.468C122.91 37.2173 121.512 38.5933 119.742 39.596C117.971 40.5773 116.03 41.068 113.918 41.068ZM113.918 35.244C115.518 35.244 116.776 34.7213 117.694 33.676C118.632 32.6307 119.102 31.2333 119.102 29.484C119.102 27.692 118.632 26.284 117.694 25.26C116.776 24.2147 115.518 23.692 113.918 23.692C112.296 23.692 111.027 24.2147 110.109 25.26C109.192 26.284 108.733 27.692 108.733 29.484C108.733 31.2547 109.192 32.6627 110.109 33.708C111.027 34.732 112.296 35.244 113.918 35.244Z" fill="white"/>
<path d="M134.433 18.284V31.372C134.433 32.588 134.71 33.5267 135.265 34.188C135.841 34.8493 136.705 35.18 137.857 35.18C139.009 35.18 139.873 34.8493 140.449 34.188C141.046 33.5053 141.345 32.5667 141.345 31.372V18.284H147.617V31.372C147.617 33.4413 147.18 35.212 146.305 36.684C145.43 38.1347 144.236 39.2333 142.721 39.98C141.228 40.7053 139.564 41.068 137.729 41.068C135.894 41.068 134.252 40.7053 132.801 39.98C131.372 39.2333 130.241 38.1347 129.409 36.684C128.598 35.2333 128.193 33.4627 128.193 31.372V18.284H134.433Z" fill="white"/>
<path d="M162.494 40.844L158.014 32.524H157.342V40.844H151.07V18.284H160.958C162.772 18.284 164.308 18.604 165.566 19.244C166.825 19.8627 167.774 20.7267 168.414 21.836C169.054 22.924 169.374 24.1507 169.374 25.516C169.374 27.052 168.948 28.4067 168.094 29.58C167.262 30.732 166.036 31.5533 164.414 32.044L169.502 40.844H162.494ZM157.342 28.236H160.446C161.3 28.236 161.94 28.0333 162.366 27.628C162.793 27.2227 163.006 26.636 163.006 25.868C163.006 25.1427 162.782 24.5773 162.334 24.172C161.908 23.7453 161.278 23.532 160.446 23.532H157.342V28.236Z" fill="white"/>
<path d="M192.624 37.164H184.624L183.408 40.844H176.815L185.04 18.284H192.271L200.464 40.844H193.84L192.624 37.164ZM191.056 32.364L188.624 25.068L186.224 32.364H191.056Z" fill="white"/>
<path d="M220.332 25.804C220.332 27.1693 220.012 28.4173 219.372 29.548C218.753 30.6573 217.804 31.5533 216.524 32.236C215.265 32.8973 213.718 33.228 211.884 33.228H208.78V40.844H202.508V18.284H211.884C213.697 18.284 215.233 18.604 216.492 19.244C217.772 19.884 218.732 20.7693 219.372 21.9C220.012 23.0307 220.332 24.332 220.332 25.804ZM211.276 28.236C213.046 28.236 213.932 27.4253 213.932 25.804C213.932 24.1613 213.046 23.34 211.276 23.34H208.78V28.236H211.276Z" fill="white"/>
<path d="M240.675 25.804C240.675 27.1693 240.356 28.4173 239.715 29.548C239.097 30.6573 238.147 31.5533 236.867 32.236C235.609 32.8973 234.062 33.228 232.227 33.228H229.123V40.844H222.852V18.284H232.227C234.041 18.284 235.577 18.604 236.835 19.244C238.115 19.884 239.076 20.7693 239.715 21.9C240.356 23.0307 240.675 24.332 240.675 25.804ZM231.619 28.236C233.39 28.236 234.275 27.4253 234.275 25.804C234.275 24.1613 233.39 23.34 231.619 23.34H229.123V28.236H231.619Z" fill="white"/>
<path d="M270.216 40.844H263.944L255.592 28.236V40.844H249.32V18.284H255.592L263.944 31.052V18.284H270.216V40.844Z" fill="white"/>
<path d="M288.061 37.164H280.061L278.845 40.844H272.253L280.477 18.284H287.709L295.901 40.844H289.277L288.061 37.164ZM286.493 32.364L284.061 25.068L281.661 32.364H286.493Z" fill="white"/>
<path d="M324.281 18.284V40.844H318.009V28.396L313.753 40.844H308.505L304.217 28.3V40.844H297.945V18.284H305.529L311.193 32.94L316.729 18.284H324.281Z" fill="white"/>
<path d="M334.123 23.308V26.988H341.324V31.756H334.123V35.82H342.284V40.844H327.852V18.284H342.284V23.308H334.123Z" fill="white"/>
</svg>
