<svg width="296" height="60" viewBox="0 0 296 60" fill="none" xmlns="http://www.w3.org/2000/svg">
<path fill-rule="evenodd" clip-rule="evenodd" d="M0 5.28V47.52C0 50.4361 2.38781 52.8 5.33333 52.8H32.4524C35.2245 57.13 40.0771 60 45.6 60C54.2156 60 61.2 53.0156 61.2 44.4C61.2 36.6005 55.4762 30.1379 48 28.9835V15.2261C48 13.9217 47.5123 12.6635 46.6309 11.694L37.589 1.74787C36.5775 0.635298 35.1367 0 33.6247 0H5.33333C2.38781 0 0 2.36394 0 5.28ZM30 44.4C30 36.6005 35.7238 30.1379 43.2 28.9835V15.6L33.6247 4.8H4.8V29.004L11.4478 22.3733C12.4892 21.3423 14.1776 21.3423 15.219 22.3733L20 27.1065L28.2288 18.96H26.6667C25.1939 18.96 24 17.778 24 16.32C24 14.862 25.1939 13.68 26.6667 13.68H34.6667C36.1394 13.68 37.3333 14.862 37.3333 16.32V24.24C37.3333 25.698 36.1394 26.88 34.6667 26.88C33.1939 26.88 32 25.698 32 24.24V22.6936L21.8857 32.7068C20.8443 33.7378 19.1558 33.7378 18.1144 32.7068L13.3334 27.9736L4.8 36.504V48H30.4174C30.1445 46.8444 30 45.639 30 44.4ZM43.2 38.4C43.2 37.0745 44.2745 36 45.6 36C46.9255 36 48 37.0745 48 38.4V43.4058L51.586 46.9919C52.5233 47.9292 52.5233 49.4487 51.586 50.386C50.6488 51.3233 49.1292 51.3233 48.1919 50.386L44.4 46.5941C44.3158 46.5099 44.2389 46.4205 44.1694 46.327C43.5827 45.8907 43.2 45.1907 43.2 44.4V38.4Z" fill="white"/>
<path d="M95.2932 26.451L90.3703 17.1197V26.451H82.2146V0.440852H94.338C96.4443 0.440852 98.2444 0.820472 99.7384 1.57971C101.232 2.31447 102.347 3.33087 103.082 4.62893C103.841 5.9025 104.22 7.34751 104.22 8.96396C104.22 10.7029 103.731 12.2459 102.751 13.5929C101.796 14.9399 100.412 15.9074 98.5996 16.4952L104.257 26.451H95.2932ZM90.3703 11.6825H93.6033C94.387 11.6825 94.9748 11.5111 95.3667 11.1682C95.7585 10.8008 95.9545 10.2375 95.9545 9.47829C95.9545 8.79252 95.7463 8.2537 95.3299 7.86184C94.9381 7.46997 94.3625 7.27404 93.6033 7.27404H90.3703V11.6825Z" fill="white"/>
<path d="M114.982 6.90666V10.1396H123.064V16.2747H114.982V19.9485H124.166V26.451H106.826V0.440852H124.166V6.90666H114.982Z" fill="white"/>
<path d="M135.395 18.1851V26.451H127.24V0.440852H138.628C141.812 0.440852 144.249 1.24908 145.939 2.86553C147.653 4.48198 148.511 6.6495 148.511 9.36808C148.511 11.009 148.131 12.503 147.372 13.8501C146.613 15.1726 145.486 16.2258 143.992 17.0095C142.522 17.7932 140.735 18.1851 138.628 18.1851H135.395ZM137.71 11.756C139.4 11.756 140.245 10.96 140.245 9.36808C140.245 7.77611 139.4 6.98013 137.71 6.98013H135.395V11.756H137.71Z" fill="white"/>
<path d="M163.772 0C166.221 0 168.462 0.575555 170.495 1.72666C172.528 2.85328 174.132 4.433 175.308 6.46581C176.508 8.49862 177.108 10.7886 177.108 13.3357C177.108 15.8829 176.508 18.1728 175.308 20.2057C174.132 22.2385 172.516 23.8304 170.458 24.9815C168.425 26.1326 166.197 26.7082 163.772 26.7082C161.323 26.7082 159.07 26.1326 157.012 24.9815C154.979 23.8304 153.363 22.2385 152.163 20.2057C150.963 18.1728 150.363 15.8829 150.363 13.3357C150.363 10.7886 150.963 8.49862 152.163 6.46581C153.363 4.433 154.979 2.85328 157.012 1.72666C159.07 0.575555 161.323 0 163.772 0ZM163.772 7.5312C162.131 7.5312 160.87 8.05777 159.988 9.11091C159.106 10.1396 158.665 11.5478 158.665 13.3357C158.665 15.0991 159.106 16.5074 159.988 17.5606C160.87 18.5892 162.131 19.1035 163.772 19.1035C165.388 19.1035 166.638 18.5892 167.519 17.5606C168.401 16.5074 168.842 15.0991 168.842 13.3357C168.842 11.5478 168.401 10.1396 167.519 9.11091C166.638 8.05777 165.388 7.5312 163.772 7.5312Z" fill="white"/>
<path d="M193.128 26.451L188.206 17.1197V26.451H180.05V0.440852H192.173C194.28 0.440852 196.08 0.820472 197.574 1.57971C199.068 2.31447 200.182 3.33087 200.917 4.62893C201.676 5.9025 202.056 7.34751 202.056 8.96396C202.056 10.7029 201.566 12.2459 200.586 13.5929C199.631 14.9399 198.247 15.9074 196.435 16.4952L202.092 26.451H193.128ZM188.206 11.6825H191.439C192.222 11.6825 192.81 11.5111 193.202 11.1682C193.594 10.8008 193.79 10.2375 193.79 9.47829C193.79 8.79252 193.582 8.2537 193.165 7.86184C192.773 7.46997 192.198 7.27404 191.439 7.27404H188.206V11.6825Z" fill="white"/>
<path d="M225.907 0.440852V6.90666H219V26.451H210.844V6.90666H204.011V0.440852H225.907Z" fill="white"/>
<path d="M102.31 51.8367C102.31 53.3307 101.918 54.6777 101.134 55.8778C100.375 57.0779 99.2608 58.0331 97.7913 58.7434C96.3218 59.4291 94.5707 59.772 92.5379 59.772C89.4274 59.772 86.8558 59.0495 84.823 57.6045C82.8147 56.135 81.7248 53.992 81.5533 51.1754H90.2234C90.3459 52.6694 91.0071 53.4164 92.2072 53.4164C92.6236 53.4164 92.9542 53.3062 93.1991 53.0858C93.4685 52.8653 93.6033 52.5469 93.6033 52.1306C93.6033 51.5183 93.2849 51.0407 92.6481 50.6978C92.0358 50.3304 91.0316 49.9141 89.6356 49.4487C87.9947 48.9099 86.6231 48.3589 85.521 47.7956C84.4434 47.2322 83.5004 46.3995 82.6922 45.2974C81.884 44.1953 81.4799 42.7625 81.4799 40.9991C81.4799 39.3092 81.9085 37.8764 82.7657 36.7008C83.6474 35.5007 84.8352 34.5945 86.3292 33.9822C87.8477 33.3699 89.5499 33.0638 91.4357 33.0638C94.5462 33.0638 97.0198 33.7863 98.8567 35.2313C100.694 36.6763 101.698 38.7581 101.869 41.4767H93.0889C92.9665 40.1052 92.4032 39.4194 91.399 39.4194C91.0561 39.4194 90.7745 39.5296 90.554 39.75C90.3336 39.946 90.2234 40.2521 90.2234 40.6685C90.2234 41.2318 90.5295 41.6971 91.1418 42.0645C91.7786 42.4074 92.7583 42.8115 94.0808 43.2768C95.7463 43.8646 97.1178 44.4524 98.1954 45.0402C99.2976 45.6035 100.253 46.4485 101.061 47.5751C101.894 48.6773 102.31 50.0978 102.31 51.8367Z" fill="white"/>
<path d="M117.299 33.2475C119.552 33.2475 121.561 33.6761 123.324 34.5333C125.112 35.366 126.557 36.5539 127.659 38.0968C128.786 39.6398 129.533 41.44 129.9 43.4973H121.303C120.911 42.6401 120.348 41.9788 119.613 41.5134C118.903 41.0236 118.083 40.7787 117.152 40.7787C115.78 40.7787 114.691 41.293 113.882 42.3217C113.099 43.3503 112.707 44.7341 112.707 46.473C112.707 48.2119 113.099 49.5957 113.882 50.6243C114.691 51.653 115.78 52.1673 117.152 52.1673C118.083 52.1673 118.903 51.9347 119.613 51.4693C120.348 50.9795 120.911 50.306 121.303 49.4487H129.9C129.533 51.5061 128.786 53.3062 127.659 54.8492C126.557 56.3921 125.112 57.5922 123.324 58.4494C121.561 59.2822 119.552 59.6985 117.299 59.6985C114.678 59.6985 112.401 59.1475 110.466 58.0453C108.531 56.9187 107.037 55.3512 105.984 53.3429C104.955 51.3346 104.441 49.0446 104.441 46.473C104.441 43.9014 104.955 41.6114 105.984 39.6031C107.037 37.5948 108.531 36.0395 110.466 34.9374C112.401 33.8108 114.678 33.2475 117.299 33.2475Z" fill="white"/>
<path d="M156.899 33.5047V59.5148H148.744V49.3753H140.992V59.5148H132.836V33.5047H140.992V42.8727H148.744V33.5047H156.899Z" fill="white"/>
<path d="M168.725 39.9705V43.2034H176.807V49.3385H168.725V53.0123H177.909V59.5148H160.569V33.5047H177.909V39.9705H168.725Z" fill="white"/>
<path d="M205.34 46.4363C205.34 48.9099 204.789 51.1387 203.686 53.1225C202.584 55.1063 201.005 56.6738 198.947 57.8249C196.915 58.9515 194.539 59.5148 191.82 59.5148H180.983V33.5047H191.82C194.539 33.5047 196.915 34.0557 198.947 35.1578C201.005 36.26 202.584 37.7907 203.686 39.75C204.789 41.7094 205.34 43.9381 205.34 46.4363ZM191.085 52.2408C192.922 52.2408 194.38 51.7387 195.457 50.7346C196.535 49.7304 197.074 48.2976 197.074 46.4363C197.074 44.5749 196.535 43.1421 195.457 42.138C194.38 41.1338 192.922 40.6317 191.085 40.6317H189.138V52.2408H191.085Z" fill="white"/>
<path d="M216.257 33.5047V48.1629C216.257 49.363 216.514 50.3182 217.028 51.0285C217.567 51.7142 218.424 52.0571 219.6 52.0571C220.775 52.0571 221.645 51.7142 222.208 51.0285C222.772 50.3182 223.053 49.363 223.053 48.1629V33.5047H231.172V48.1629C231.172 50.6366 230.658 52.7551 229.629 54.5185C228.601 56.2574 227.192 57.5677 225.404 58.4494C223.617 59.3312 221.62 59.772 219.416 59.772C217.212 59.772 215.253 59.3312 213.538 58.4494C211.848 57.5677 210.526 56.2574 209.571 54.5185C208.615 52.7796 208.138 50.6611 208.138 48.1629V33.5047H216.257Z" fill="white"/>
<path d="M242.4 53.3429H250.262V59.5148H234.244V33.5047H242.4V53.3429Z" fill="white"/>
<path d="M261.43 39.9705V43.2034H269.512V49.3385H261.43V53.0123H270.614V59.5148H253.274V33.5047H270.614V39.9705H261.43Z" fill="white"/>
<path d="M286.766 59.5148L281.843 50.1835V59.5148H273.688V33.5047H285.811C287.917 33.5047 289.717 33.8843 291.211 34.6435C292.705 35.3783 293.82 36.3947 294.555 37.6927C295.314 38.9663 295.693 40.4113 295.693 42.0278C295.693 43.7667 295.204 45.3096 294.224 46.6567C293.269 48.0037 291.885 48.9712 290.073 49.559L295.73 59.5148H286.766ZM281.843 44.7463H285.076C285.86 44.7463 286.448 44.5749 286.84 44.232C287.231 43.8646 287.427 43.3013 287.427 42.5421C287.427 41.8563 287.219 41.3175 286.803 40.9256C286.411 40.5338 285.835 40.3378 285.076 40.3378H281.843V44.7463Z" fill="white"/>
</svg>
