<svg width="30" height="26" viewBox="0 0 30 26" fill="none" xmlns="http://www.w3.org/2000/svg">
<path fill-rule="evenodd" clip-rule="evenodd" d="M3.87793 13.5115V10.8315C3.87793 10.7516 3.81355 10.6869 3.73418 10.6869H2.56917C2.48917 10.6869 2.42542 10.7516 2.42542 10.8315V13.5755C2.42542 13.7569 2.38792 13.8989 2.31292 14.0023C2.23792 14.1057 2.11542 14.1577 1.94417 14.1577C1.77542 14.1577 1.65042 14.0981 1.57042 13.9801C1.50792 13.885 1.46729 13.7619 1.44917 13.6072C1.44104 13.5343 1.38042 13.4785 1.30729 13.4785H0.144159C0.0604089 13.4785 -0.00584142 13.5514 0.000408613 13.637C0.0404088 14.1887 0.208535 14.6168 0.505411 14.9199C0.829163 15.2522 1.30917 15.4177 1.94479 15.4177C2.5473 15.4177 3.0198 15.2573 3.36355 14.9358C3.7073 14.6155 3.87856 14.1405 3.87856 13.5115H3.87793ZM5.12544 13.013C5.12544 13.3884 5.17544 13.7245 5.27294 14.0213C5.37106 14.3194 5.51669 14.5711 5.71044 14.7779C5.90544 14.9846 6.14419 15.1432 6.42794 15.2535C6.7117 15.3632 7.0392 15.4184 7.41045 15.4184C7.79045 15.4184 8.12483 15.3613 8.41545 15.2472C8.70546 15.133 8.94671 14.97 9.14171 14.7588C9.33546 14.5477 9.48296 14.2896 9.58296 13.9852C9.68296 13.6827 9.73296 13.3428 9.73296 12.968C9.73296 12.5926 9.68484 12.2577 9.58671 11.9622C9.48796 11.6673 9.34296 11.4168 9.14796 11.2094C8.95421 11.0027 8.71483 10.8442 8.43108 10.7338C8.1467 10.6247 7.81858 10.5689 7.44858 10.5689C7.06857 10.5689 6.73357 10.626 6.44357 10.7402C6.15357 10.8543 5.90982 11.0192 5.71419 11.2323C5.51731 11.4454 5.37044 11.7016 5.27231 12.0015C5.17419 12.3008 5.12481 12.6376 5.12481 13.013H5.12544ZM7.42982 11.8303C7.96295 11.8303 8.22983 12.2184 8.22983 12.994C8.22983 13.7696 7.96295 14.1577 7.42982 14.1577C6.8967 14.1577 6.62982 13.7696 6.62982 12.994C6.62982 12.2184 6.8967 11.8303 7.42982 11.8303ZM14.6049 12.4346C14.6936 12.2698 14.7386 12.0808 14.7386 11.869C14.7386 11.7104 14.7136 11.5582 14.6617 11.4136C14.6117 11.2697 14.5242 11.1435 14.4036 11.0357C14.2817 10.9279 14.1192 10.8429 13.9149 10.7808C13.7099 10.7173 13.4542 10.6869 13.148 10.6869H11.1567C11.078 10.6869 11.013 10.7516 11.013 10.8315V15.1565C11.013 15.2364 11.078 15.3023 11.1567 15.3023H13.0899C13.4224 15.3023 13.7011 15.2643 13.9274 15.1913C14.1524 15.1184 14.3361 15.0201 14.4761 14.8946C14.6174 14.769 14.718 14.625 14.7774 14.4614C14.8374 14.2965 14.8667 14.1253 14.8667 13.944C14.8667 13.5064 14.7011 13.1785 14.3692 12.961C14.288 12.9065 14.2817 12.7885 14.3567 12.7264C14.463 12.6414 14.5455 12.5437 14.6042 12.4346H14.6049ZM12.3386 11.8855C12.3386 11.8049 12.4036 11.7396 12.4824 11.7396H12.9086C13.0874 11.7396 13.2086 11.77 13.2736 11.8303C13.3374 11.8912 13.3692 11.9774 13.3692 12.089C13.3692 12.2013 13.3367 12.2875 13.273 12.3478C13.2086 12.4086 13.0867 12.4391 12.908 12.4391H12.483C12.403 12.4391 12.3392 12.3738 12.3392 12.2932V11.8861L12.3386 11.8855ZM13.3824 14.138C13.3055 14.2116 13.1574 14.2477 12.9405 14.2477H12.483C12.4042 14.2477 12.3392 14.183 12.3392 14.1019V13.5463C12.3392 13.4671 12.4042 13.4017 12.483 13.4017H12.9411C13.1586 13.4017 13.3061 13.4385 13.3824 13.5121C13.4586 13.585 13.4974 13.6909 13.4974 13.8292C13.4974 13.9623 13.4586 14.0657 13.3817 14.1386L13.3824 14.138ZM19.7118 12.4346C19.8011 12.2698 19.8461 12.0808 19.8461 11.869C19.8461 11.7104 19.8211 11.5582 19.7693 11.4136C19.7174 11.2697 19.6318 11.1435 19.5099 11.0357C19.3886 10.9279 19.2255 10.8429 19.0211 10.7808C18.8168 10.7173 18.5611 10.6869 18.2543 10.6869H16.2642C16.1849 10.6869 16.1205 10.7516 16.1205 10.8315V15.1565C16.1205 15.2364 16.1849 15.3023 16.2642 15.3023H18.1974C18.5286 15.3023 18.808 15.2643 19.0349 15.1913C19.2599 15.1184 19.443 15.0201 19.5836 14.8946C19.7236 14.769 19.8243 14.625 19.8836 14.4614C19.9436 14.2965 19.9736 14.1253 19.9736 13.944C19.9736 13.5064 19.8074 13.1785 19.4761 12.961C19.3949 12.9065 19.3886 12.7885 19.4649 12.7264C19.5711 12.6414 19.6536 12.5437 19.7118 12.4346ZM17.4461 11.8855C17.4461 11.8049 17.5105 11.7396 17.5899 11.7396H18.0149C18.1949 11.7396 18.3161 11.77 18.3805 11.8303C18.4443 11.8912 18.4761 11.9774 18.4761 12.089C18.4761 12.2013 18.4449 12.2875 18.3805 12.3478C18.3161 12.4086 18.1949 12.4391 18.0155 12.4391H17.5905C17.5105 12.4391 17.4468 12.3738 17.4468 12.2932V11.8861L17.4461 11.8855ZM18.4899 14.138C18.4124 14.2116 18.2649 14.2477 18.0474 14.2477H17.5899C17.5105 14.2477 17.4461 14.183 17.4461 14.1019V13.5463C17.4461 13.4671 17.5105 13.4017 17.5899 13.4017H18.0474C18.2649 13.4017 18.4124 13.4385 18.4893 13.5121C18.5668 13.585 18.6049 13.6909 18.6049 13.8292C18.6049 13.9623 18.5674 14.0657 18.4899 14.1386V14.138ZM24.6587 15.1704L24.7399 14.3295C24.7474 14.2445 24.6812 14.171 24.5962 14.171H22.7993C22.7199 14.171 22.6555 14.1057 22.6555 14.0251V13.6827C22.6555 13.6021 22.7199 13.5368 22.7993 13.5368H24.3555C24.4343 13.5368 24.4993 13.4721 24.4993 13.391V12.5507C24.4993 12.4714 24.4343 12.4067 24.3555 12.4067H22.7993C22.7199 12.4067 22.6555 12.3414 22.6555 12.2609V11.9628C22.6555 11.8829 22.7199 11.8182 22.7993 11.8182H24.483C24.563 11.8182 24.6268 11.7536 24.6268 11.6724V10.8315C24.6268 10.7516 24.563 10.6869 24.483 10.6869H21.3724C21.293 10.6869 21.2287 10.7516 21.2287 10.8315V15.1565C21.2287 15.2364 21.293 15.3023 21.3724 15.3023H24.5162C24.5899 15.3023 24.6518 15.2453 24.6587 15.1704ZM29.9837 15.088L29.2118 13.644C29.1781 13.5806 29.1943 13.5032 29.2506 13.4601C29.4156 13.3333 29.5481 13.1785 29.6468 12.994C29.7637 12.7746 29.8218 12.5095 29.8218 12.1994C29.8218 11.992 29.7918 11.796 29.7293 11.6109C29.6668 11.4251 29.5637 11.2646 29.4187 11.1289C29.2724 10.9932 29.0812 10.8854 28.8437 10.8055C28.6074 10.7256 28.3124 10.6863 27.9624 10.6863H26.1449C26.0656 10.6863 26.0012 10.7509 26.0012 10.8309V15.1558C26.0012 15.2357 26.0656 15.3017 26.1449 15.3017H27.2262C27.3062 15.3017 27.3699 15.2357 27.3699 15.1558V13.9655C27.3699 13.8856 27.4349 13.8209 27.5137 13.8209H27.7937C27.8481 13.8209 27.8981 13.8526 27.9224 13.9015L28.5724 15.2205C28.5974 15.27 28.6474 15.3011 28.7012 15.3011H29.8562C29.9649 15.3011 30.0343 15.1831 29.9824 15.0854L29.9837 15.088ZM28.3168 12.6319C28.2256 12.713 28.0718 12.7543 27.8556 12.7543H27.5156C27.4362 12.7543 27.3718 12.6896 27.3718 12.6084V11.9172C27.3718 11.8366 27.4362 11.7713 27.5156 11.7713H27.8556C28.0718 11.7713 28.2256 11.8125 28.3168 11.8943C28.4081 11.9768 28.4543 12.0992 28.4543 12.2622C28.4543 12.427 28.4081 12.5494 28.3168 12.6312V12.6319ZM9.21796 22.5204H18.3899C21.3868 22.5204 23.8649 20.2957 24.3055 17.3925C24.3199 17.2961 24.243 17.2061 24.1455 17.2061H22.6143C22.5405 17.2061 22.4805 17.2581 22.4655 17.3304C22.0718 19.2443 20.4018 20.6851 18.3905 20.6851H11.1442C10.9711 20.6851 10.8505 20.5107 10.9117 20.3471L11.3323 19.2037C11.3698 19.1054 11.4623 19.0407 11.5661 19.0407H18.038C19.1674 19.0407 20.1418 18.3863 20.6193 17.4337C20.6711 17.3297 20.588 17.2054 20.4736 17.2054H9.12733C9.03983 17.2054 8.96983 17.2765 8.96983 17.364V22.2692C8.96983 22.4075 9.08233 22.5197 9.21859 22.5197L9.21796 22.5204ZM20.9343 8.63475V3.73014C20.9343 3.59189 20.823 3.47965 20.6861 3.47965H11.5148C8.51733 3.47965 6.03857 5.70429 5.59856 8.60748C5.58419 8.70387 5.66231 8.79392 5.75919 8.79392H7.29045C7.36357 8.79392 7.4242 8.74129 7.4392 8.66963C7.83295 6.75573 9.50296 5.31491 11.5142 5.31491H18.7599C18.933 5.31491 19.0536 5.4893 18.9924 5.65292L18.5718 6.79631C18.5355 6.89461 18.443 6.95929 18.3393 6.95929H11.8661C10.7367 6.95929 9.76234 7.61375 9.28483 8.56626C9.23296 8.67026 9.31609 8.79456 9.43046 8.79456H20.7774C20.8636 8.79456 20.9336 8.72353 20.9336 8.63602L20.9343 8.63475ZM27.6118 17.2061H26.1081C26.0293 17.2061 25.9656 17.2657 25.9568 17.3456C25.5268 21.1823 22.3043 24.1654 18.3899 24.1654H7.58983C7.45232 24.1654 7.3417 24.0525 7.3417 23.9142V17.3659C7.3417 17.2784 7.2717 17.2073 7.18545 17.2073H5.68169C5.59544 17.2073 5.52544 17.2784 5.52544 17.3659V22.2642C5.52544 22.4874 5.25794 22.599 5.10169 22.4417L3.96918 21.2964C3.92293 21.2495 3.89668 21.1854 3.89668 21.1189V17.3646C3.89668 17.2771 3.82668 17.2061 3.74043 17.2061H2.23605C2.14855 17.2061 2.0798 17.2771 2.0798 17.3646V21.6706C2.0798 21.871 2.1573 22.0619 2.2973 22.2033L5.83857 25.7799C5.97794 25.9207 6.16732 26 6.36482 26H18.3899C23.2943 26 27.3162 22.2172 27.7712 17.3843C27.7812 17.2892 27.7049 17.2067 27.6112 17.2067L27.6118 17.2061ZM2.29292 8.79392H3.79605C3.8748 8.79392 3.93856 8.73431 3.94793 8.65441C4.37731 4.81773 7.59983 1.83526 11.5148 1.83526H22.3149C22.4512 1.83526 22.5624 1.94751 22.5624 2.08576V8.63475C22.5624 8.72226 22.6312 8.79329 22.7187 8.79329H24.2218C24.308 8.79329 24.378 8.72226 24.378 8.63475V3.73712C24.378 3.51389 24.6468 3.40228 24.803 3.55955L25.9343 4.70358L26.0068 4.88114V8.63538C26.0068 8.7229 26.0781 8.79392 26.1643 8.79392H27.6674C27.7549 8.79392 27.8237 8.7229 27.8237 8.63538V4.32815C27.8237 4.12903 27.7462 3.93751 27.6062 3.79673L24.0643 0.220054C23.9255 0.0792702 23.7362 0 23.538 0H11.5155C6.60857 0 2.58792 3.78278 2.13167 8.61572C2.12292 8.71085 2.19855 8.79329 2.2923 8.79329L2.29292 8.79392Z" fill="white"/>
</svg>
